<svg width="150" height="26" viewBox="0 0 150 26" fill="none" xmlns="http://www.w3.org/2000/svg">
<path d="M119.333 8.0112C119.981 8.03519 120.532 8.27516 120.988 8.73109C121.444 9.16302 121.684 9.70294 121.708 10.3508V22.805C121.564 24.2447 120.772 25.0246 119.333 25.1446C118.661 25.1446 118.073 24.9286 117.569 24.4967C117.089 24.0408 116.849 23.4769 116.849 22.805V10.3508C116.873 9.67895 117.125 9.12703 117.605 8.69509C118.085 8.23916 118.661 8.0112 119.333 8.0112Z" fill="white"/>
<path d="M116.309 3.33191C116.309 2.66001 116.597 2.0841 117.173 1.60417C117.749 1.12424 118.445 0.884277 119.261 0.884277C120.077 0.884277 120.772 1.12424 121.348 1.60417C121.924 2.0841 122.212 2.66001 122.212 3.33191C122.212 4.0278 121.924 4.61571 121.348 5.09564C120.772 5.57557 120.077 5.81553 119.261 5.81553C118.445 5.81553 117.749 5.57557 117.173 5.09564C116.597 4.61571 116.309 4.0278 116.309 3.33191Z" fill="white"/>
<path d="M37.1931 22.805C36.0892 21.1492 34.9854 18.9775 33.8816 16.2899L29.9222 6.06749C29.8022 5.80353 29.7302 5.51558 29.7062 5.20362C29.6582 4.53173 29.8502 3.95581 30.2821 3.47588C30.738 2.99596 31.314 2.75599 32.0098 2.75599C32.7537 2.75599 33.3057 2.92397 33.6656 3.25992C34.0495 3.57187 34.3615 3.97981 34.6015 4.48373L38.0209 13.8423C38.4049 14.8262 38.7768 15.762 39.1368 16.6499C39.5207 17.5138 39.9407 18.3056 40.3966 19.0255C40.8525 19.7454 41.3684 20.1294 41.9443 20.1774C42.4963 20.1294 42.9882 19.7454 43.4201 19.0255C43.9001 18.3056 44.32 17.5138 44.6799 16.6499C45.0639 15.762 45.4478 14.8262 45.8318 13.8423L49.1793 4.48373C49.4192 3.97981 49.7192 3.57187 50.0791 3.25992C50.4631 2.92397 51.051 2.75599 51.8428 2.75599C52.5387 2.75599 53.1027 2.99596 53.5346 3.47588C53.9905 3.95581 54.1945 4.53173 54.1465 5.20362C54.1225 5.51558 54.0505 5.80353 53.9305 6.06749L49.9711 16.2899C48.8673 19.0255 47.7635 21.2092 46.6596 22.841C45.5798 24.4487 44.008 25.2646 41.9443 25.2886C39.8567 25.2646 38.2729 24.4367 37.1931 22.805Z" fill="white"/>
<path fill-rule="evenodd" clip-rule="evenodd" d="M77.183 3.47588C78.4068 3.49988 79.4987 3.88382 80.4585 4.62771C81.4184 5.3716 82.1863 6.25946 82.7622 7.29131C83.3621 8.32315 83.806 9.41499 84.094 10.5668C84.3819 11.7186 84.5259 12.8945 84.5259 14.0943C84.5259 15.678 84.2739 17.2378 83.77 18.7736C83.2901 20.2853 82.4862 21.6291 81.3584 22.805C80.2546 23.9808 78.8628 24.6167 77.183 24.7127H64.6209C62.9412 24.6407 61.5374 24.0168 60.4096 22.841C59.2817 21.6651 58.4778 20.3093 57.9979 18.7736C57.542 17.2378 57.314 15.678 57.314 14.0943C57.314 12.5105 57.554 10.9628 58.0339 9.45098C58.5138 7.91521 59.3057 6.55942 60.4096 5.3836C61.5374 4.18378 62.9412 3.54787 64.6209 3.47588H77.183ZM75.9592 19.8894C76.8711 19.8414 77.627 19.5055 78.2269 18.8816C78.8508 18.2337 79.2947 17.4898 79.5587 16.6499C79.8226 15.81 79.9546 14.9581 79.9546 14.0943C79.9546 13.2304 79.8106 12.3905 79.5227 11.5747C79.2587 10.7348 78.8268 9.9909 78.2269 9.343C77.627 8.69509 76.8711 8.34715 75.9592 8.29915H65.7367C64.8249 8.34715 64.069 8.69509 63.4691 9.343C62.8692 9.9909 62.4252 10.7348 62.1373 11.5747C61.8733 12.3905 61.7414 13.2304 61.7414 14.0943C61.7414 14.9581 61.8733 15.81 62.1373 16.6499C62.4013 17.4898 62.8332 18.2337 63.4331 18.8816C64.057 19.5055 64.8249 19.8414 65.7367 19.8894H75.9592Z" fill="white"/>
<path fill-rule="evenodd" clip-rule="evenodd" d="M113.142 18.1257C113.142 17.1418 112.914 16.17 112.458 15.2101C112.002 14.3222 111.282 13.5304 110.298 12.8345C110.322 12.8105 110.346 12.7745 110.37 12.7265C110.826 11.8146 111.054 10.8788 111.054 9.91891C111.054 8.98305 110.814 8.05919 110.334 7.14733C109.854 6.21147 109.074 5.3836 107.994 4.6637C106.915 3.94381 105.535 3.55987 103.855 3.51188H103.639C103.495 3.48788 103.351 3.47588 103.207 3.47588H90.825C90.1771 3.49988 89.6251 3.73984 89.1692 4.19578C88.7373 4.62771 88.5093 5.16763 88.4853 5.81553V22.301C88.5093 22.9489 88.7373 23.5009 89.1692 23.9568C89.6251 24.3887 90.1771 24.6167 90.825 24.6407H105.295C105.439 24.6407 105.583 24.6287 105.727 24.6047H105.943C107.622 24.6047 109.002 24.2447 110.082 23.5248C111.162 22.781 111.942 21.9411 112.422 21.0052C112.902 20.0454 113.142 19.0855 113.142 18.1257ZM107.274 19.5654C106.987 19.7574 106.615 19.8414 106.159 19.8174H94.3524C93.6805 19.8174 93.3446 19.4935 93.3446 18.8456V16.3619H106.159C106.615 16.3859 106.987 16.4939 107.274 16.6859C107.586 16.8779 107.814 17.1298 107.958 17.4418C108.102 17.7297 108.174 17.9577 108.174 18.1257C108.174 18.3896 108.102 18.6536 107.958 18.9175C107.814 19.1575 107.586 19.3735 107.274 19.5654ZM105.871 10.6388C105.727 10.8548 105.511 11.0467 105.223 11.2147C104.911 11.4067 104.527 11.5147 104.071 11.5387H93.3446V9.27101C93.3446 8.62311 93.6805 8.29915 94.3524 8.29915H104.071C104.527 8.32315 104.899 8.43113 105.187 8.62311C105.499 8.79108 105.727 8.99505 105.871 9.23501C106.015 9.45098 106.087 9.67895 106.087 9.91891C106.087 10.1589 106.015 10.3988 105.871 10.6388Z" fill="white"/>
<path d="M148.668 7.57926C149.148 7.12333 149.388 6.55942 149.388 5.88752C149.388 5.21562 149.148 4.65171 148.668 4.19578C148.212 3.71585 147.648 3.47588 146.976 3.47588H133.443C133.299 3.47588 133.155 3.48788 133.011 3.51188H132.795C131.115 3.55987 129.735 3.94381 128.655 4.6637C127.575 5.3836 126.796 6.21147 126.316 7.14733C125.836 8.05919 125.596 8.98305 125.596 9.91891C125.596 10.8788 125.824 11.8266 126.28 12.7625C126.76 13.6743 127.539 14.4902 128.619 15.2101C129.723 15.93 131.115 16.3139 132.795 16.3619H143.017C143.473 16.3859 143.845 16.4939 144.133 16.6859C144.445 16.8779 144.673 17.1298 144.817 17.4418C144.961 17.7297 145.033 17.9577 145.033 18.1257C145.033 18.3896 144.961 18.6536 144.817 18.9175C144.673 19.1575 144.445 19.3735 144.133 19.5654C143.845 19.7574 143.473 19.8414 143.017 19.8174H128.547C127.875 19.8174 127.311 20.0574 126.856 20.5373C126.376 20.9932 126.136 21.5571 126.136 22.229C126.136 22.9009 126.364 23.4769 126.82 23.9568C127.299 24.4127 127.875 24.6407 128.547 24.6407H142.153C142.297 24.6407 142.441 24.6287 142.585 24.6047H142.801C144.481 24.6047 145.861 24.2447 146.94 23.5248C148.02 22.781 148.8 21.9411 149.28 21.0052C149.76 20.0454 150 19.0855 150 18.1257C150 17.1418 149.76 16.182 149.28 15.2461C148.824 14.2862 148.044 13.4464 146.94 12.7265C145.861 11.9826 144.481 11.5867 142.801 11.5387H132.579C132.123 11.5147 131.739 11.4187 131.427 11.2507C131.139 11.0587 130.923 10.8548 130.779 10.6388C130.635 10.3988 130.563 10.1589 130.563 9.91891C130.563 9.67895 130.635 9.45098 130.779 9.23501C130.923 8.99505 131.139 8.79108 131.427 8.62311C131.739 8.43113 132.123 8.32315 132.579 8.29915H146.976C147.648 8.29915 148.212 8.05919 148.668 7.57926Z" fill="white"/>
<path d="M17.1706 7.12404C16.6696 7.12404 16.1764 7.01445 15.6911 6.79525C15.2214 6.57606 14.83 6.33339 14.5168 6.06722C14.2194 5.80106 13.8828 5.55839 13.507 5.33919C13.1312 5.12 12.779 5.01041 12.4502 5.01041C12.0088 5.01041 11.5998 5.19167 11.2232 5.5542C10.2906 6.60198 9.26592 7.12587 8.14924 7.12587C7.64823 7.12587 7.15505 7.01628 6.66969 6.79709C6.2 6.57789 5.80858 6.33522 5.49545 6.06906C5.19798 5.80289 4.86136 5.56022 4.4856 5.34102C4.10985 5.12183 3.75757 5.01224 3.42879 5.01224C2.94343 5.01224 2.49722 5.23143 2.09015 5.66981C1.87096 5.889 1.61263 6.02991 1.31515 6.09254C1.25252 6.1082 1.1899 6.11602 1.12727 6.11602C0.90808 6.11602 0.696717 6.04557 0.493182 5.90466C0.22702 5.70113 0.0704545 5.44279 0.0234848 5.12966C0.00782828 5.06704 0 5.00441 0 4.94178C0 4.69128 0.0861111 4.46426 0.258333 4.26072C1.22904 3.08648 2.30934 2.49936 3.49924 2.49936C3.98459 2.49936 4.46212 2.60896 4.93182 2.82815C5.41717 3.04734 5.80858 3.29002 6.10606 3.55618C6.41919 3.82234 6.76363 4.06502 7.13939 4.28421C7.53081 4.5034 7.88308 4.613 8.19621 4.613C8.64121 4.613 9.0533 4.43532 9.43249 4.07997C10.3634 3.02501 11.3928 2.49753 12.5206 2.49753C13.006 2.49753 13.4835 2.60712 13.9532 2.82632C14.4386 3.04551 14.83 3.28818 15.1275 3.55435C15.4406 3.82051 15.785 4.06318 16.1608 4.28238C16.5522 4.50157 16.9045 4.61116 17.2176 4.61116C17.703 4.61116 18.1492 4.3998 18.5562 3.97707C18.7754 3.75788 19.0338 3.61697 19.3312 3.55435C19.3939 3.53869 19.4565 3.53086 19.5191 3.53086C19.7383 3.53086 19.9497 3.60132 20.1532 3.74222C20.4194 3.94576 20.5759 4.20409 20.6229 4.51722C20.6386 4.57985 20.6464 4.64248 20.6464 4.7051C20.6464 4.95561 20.5603 5.18263 20.3881 5.38616C19.4173 6.54475 18.3449 7.12404 17.1706 7.12404Z" fill="white"/>
<path d="M15.6911 12.8501C16.1764 13.0693 16.6696 13.1789 17.1706 13.1789C18.3449 13.1789 19.4173 12.5996 20.3881 11.441C20.5603 11.2375 20.6464 11.0104 20.6464 10.7599C20.6464 10.6973 20.6386 10.6347 20.6229 10.5721C20.5759 10.2589 20.4194 10.0006 20.1532 9.79706C19.9497 9.65616 19.7383 9.5857 19.5191 9.5857C19.4565 9.5857 19.3939 9.59353 19.3312 9.60919C19.0338 9.67181 18.7754 9.81272 18.5562 10.0319C18.1492 10.4546 17.703 10.666 17.2176 10.666C16.9045 10.666 16.5522 10.5564 16.1608 10.3372C15.785 10.118 15.4406 9.87535 15.1275 9.60919C14.83 9.34302 14.4386 9.10035 13.9532 8.88116C13.4835 8.66196 13.006 8.55237 12.5206 8.55237C11.3928 8.55237 10.3634 9.07985 9.43249 10.1348C9.0533 10.4902 8.6412 10.6678 8.19621 10.6678C7.88308 10.6678 7.53081 10.5582 7.13939 10.339C6.76363 10.1199 6.41919 9.87718 6.10606 9.61102C5.80858 9.34486 5.41717 9.10218 4.93182 8.88299C4.46212 8.66379 3.98459 8.5542 3.49924 8.5542C2.30934 8.5542 1.22904 9.14132 0.258333 10.3156C0.0861111 10.5191 0 10.7461 0 10.9966C0 11.0592 0.00782828 11.1219 0.0234848 11.1845C0.0704545 11.4976 0.22702 11.756 0.493182 11.9595C0.696717 12.1004 0.90808 12.1709 1.12727 12.1709C1.1899 12.1709 1.25252 12.163 1.31515 12.1474C1.61263 12.0848 1.87096 11.9438 2.09015 11.7247C2.49722 11.2863 2.94343 11.0671 3.42879 11.0671C3.75757 11.0671 4.10985 11.1767 4.4856 11.3959C4.86136 11.6151 5.19798 11.8577 5.49545 12.1239C5.80858 12.3901 6.2 12.6327 6.66969 12.8519C7.15505 13.0711 7.64823 13.1807 8.14924 13.1807C9.26592 13.1807 10.2906 12.6568 11.2232 11.609C11.5998 11.2465 12.0088 11.0652 12.4502 11.0652C12.779 11.0652 13.1312 11.1748 13.507 11.394C13.8828 11.6132 14.2194 11.8559 14.5168 12.1221C14.83 12.3882 15.2214 12.6309 15.6911 12.8501Z" fill="white"/>
<path d="M17.1706 19.2337C16.6696 19.2337 16.1764 19.1241 15.6911 18.9049C15.2214 18.6857 14.83 18.4431 14.5168 18.1769C14.2194 17.9107 13.8828 17.6681 13.507 17.4489C13.1312 17.2297 12.779 17.1201 12.4502 17.1201C12.0088 17.1201 11.5998 17.3013 11.2232 17.6639C10.2906 18.7117 9.26593 19.2356 8.14924 19.2356C7.64823 19.2356 7.15505 19.126 6.66969 18.9068C6.2 18.6876 5.80858 18.4449 5.49545 18.1787C5.19798 17.9126 4.86136 17.6699 4.4856 17.4507C4.10985 17.2315 3.75757 17.1219 3.42879 17.1219C2.94343 17.1219 2.49722 17.3411 2.09015 17.7795C1.87096 17.9987 1.61263 18.1396 1.31515 18.2022C1.25252 18.2179 1.1899 18.2257 1.12727 18.2257C0.90808 18.2257 0.696717 18.1553 0.493182 18.0143C0.22702 17.8108 0.0704545 17.5525 0.0234848 17.2393C0.00782828 17.1767 0 17.1141 0 17.0515C0 16.801 0.0861111 16.5739 0.258333 16.3704C1.22904 15.1962 2.30934 14.609 3.49924 14.609C3.98459 14.609 4.46212 14.7186 4.93182 14.9378C5.41717 15.157 5.80858 15.3997 6.10606 15.6659C6.41919 15.932 6.76363 16.1747 7.13939 16.3939C7.53081 16.6131 7.88308 16.7227 8.19621 16.7227C8.64122 16.7227 9.05331 16.545 9.43251 16.1896C10.3634 15.1347 11.3928 14.6072 12.5206 14.6072C13.006 14.6072 13.4835 14.7168 13.9532 14.936C14.4386 15.1552 14.83 15.3979 15.1275 15.664C15.4406 15.9302 15.785 16.1729 16.1608 16.3921C16.5522 16.6112 16.9045 16.7208 17.2176 16.7208C17.703 16.7208 18.1492 16.5095 18.5562 16.0868C18.7754 15.8676 19.0338 15.7267 19.3312 15.664C19.3939 15.6484 19.4565 15.6405 19.5191 15.6405C19.7383 15.6405 19.9497 15.711 20.1532 15.8519C20.4194 16.0554 20.5759 16.3138 20.6229 16.6269C20.6386 16.6895 20.6464 16.7522 20.6464 16.8148C20.6464 17.0653 20.5603 17.2923 20.3881 17.4958C19.4173 18.6544 18.3449 19.2337 17.1706 19.2337Z" fill="white"/>
<path d="M17.1706 25.2886C16.6696 25.2886 16.1764 25.179 15.6911 24.9598C15.2214 24.7406 14.83 24.4979 14.5168 24.2317C14.2194 23.9656 13.8828 23.7229 13.507 23.5037C13.1312 23.2845 12.779 23.1749 12.4502 23.1749C12.0088 23.1749 11.5998 23.3562 11.2232 23.7187C10.2906 24.7665 9.26593 25.2904 8.14924 25.2904C7.64823 25.2904 7.15505 25.1808 6.66969 24.9616C6.2 24.7424 5.80858 24.4997 5.49545 24.2336C5.19798 23.9674 4.86136 23.7247 4.4856 23.5055C4.10985 23.2864 3.75757 23.1768 3.42879 23.1768C2.94343 23.1768 2.49722 23.396 2.09015 23.8343C1.87096 24.0535 1.61263 24.1944 1.31515 24.2571C1.25252 24.2727 1.1899 24.2805 1.12727 24.2805C0.90808 24.2805 0.696717 24.2101 0.493182 24.0692C0.22702 23.8656 0.0704545 23.6073 0.0234848 23.2942C0.00782828 23.2316 0 23.1689 0 23.1063C0 22.8558 0.0861111 22.6288 0.258333 22.4252C1.22904 21.251 2.30934 20.6639 3.49924 20.6639C3.98459 20.6639 4.46212 20.7735 4.93182 20.9927C5.41717 21.2119 5.80858 21.4545 6.10606 21.7207C6.41919 21.9869 6.76363 22.2295 7.13939 22.4487C7.53081 22.6679 7.88308 22.7775 8.19621 22.7775C8.64122 22.7775 9.05331 22.5998 9.43251 22.2445C10.3634 21.1895 11.3928 20.662 12.5206 20.662C13.006 20.662 13.4835 20.7716 13.9532 20.9908C14.4386 21.21 14.83 21.4527 15.1275 21.7189C15.4406 21.985 15.785 22.2277 16.1608 22.4469C16.5522 22.6661 16.9045 22.7757 17.2176 22.7757C17.703 22.7757 18.1492 22.5643 18.5562 22.1416C18.7754 21.9224 19.0338 21.7815 19.3312 21.7189C19.3939 21.7032 19.4565 21.6954 19.5191 21.6954C19.7383 21.6954 19.9497 21.7658 20.1532 21.9067C20.4194 22.1103 20.5759 22.3686 20.6229 22.6817C20.6386 22.7444 20.6464 22.807 20.6464 22.8696C20.6464 23.1201 20.5603 23.3471 20.3881 23.5507C19.4173 24.7093 18.3449 25.2886 17.1706 25.2886Z" fill="white"/>
</svg>
