<svg width="211" height="233" viewBox="0 0 211 233" fill="none" xmlns="http://www.w3.org/2000/svg">
<path d="M175.522 47.4764C170.415 47.4764 165.387 46.3592 160.44 44.1249C155.652 41.8905 151.662 39.4168 148.47 36.7036C145.438 33.9904 142.006 31.5167 138.176 29.2823C134.346 27.048 130.755 25.9308 127.403 25.9308C122.904 25.9308 118.735 27.7785 114.896 31.4741C105.389 42.1547 94.944 47.4951 83.561 47.4951C78.4538 47.4951 73.4265 46.3779 68.479 44.1435C63.6911 41.9092 59.7012 39.4354 56.5092 36.7223C53.4769 34.0091 50.0455 31.5354 46.2152 29.301C42.3849 27.0666 38.7939 25.9494 35.4424 25.9494C30.4949 25.9494 25.9464 28.1838 21.7968 32.6525C19.5625 34.8869 16.9291 36.3233 13.8968 36.9617C13.2584 37.1213 12.62 37.2011 11.9816 37.2011C9.74724 37.2011 7.59268 36.4829 5.51791 35.0465C2.80476 32.9717 1.20879 30.3384 0.729996 27.1464C0.570399 26.508 0.490601 25.8696 0.490601 25.2313C0.490601 22.6777 1.36839 20.3635 3.12395 18.2888C13.019 6.31899 24.0312 0.334095 36.1606 0.334095C41.1081 0.334095 45.9758 1.45128 50.7637 3.68564C55.7112 5.92 59.7012 8.39376 62.7335 11.1069C65.9255 13.8201 69.4366 16.2938 73.2669 18.5282C77.2569 20.7625 80.8478 21.8797 84.0397 21.8797C88.5759 21.8797 92.7766 20.0686 96.6419 16.4462C106.131 5.69237 116.625 0.31543 128.121 0.31543C133.069 0.31543 137.937 1.43261 142.724 3.66697C147.672 5.90133 151.662 8.37509 154.694 11.0882C157.886 13.8014 161.397 16.2752 165.228 18.5095C169.218 20.7439 172.809 21.8611 176.001 21.8611C180.948 21.8611 185.497 19.7065 189.646 15.3974C191.88 13.163 194.514 11.7266 197.546 11.0882C198.185 10.9286 198.823 10.8488 199.461 10.8488C201.696 10.8488 203.85 11.567 205.925 13.0034C208.638 15.0782 210.234 17.7115 210.713 20.9035C210.872 21.5419 210.952 22.1802 210.952 22.8186C210.952 25.3722 210.075 27.6864 208.319 29.7611C198.424 41.5713 187.491 47.4764 175.522 47.4764Z" fill="#784BD8"/>
<path d="M175.522 232.639C170.415 232.639 165.387 231.522 160.44 229.287C155.652 227.053 151.662 224.579 148.47 221.866C145.438 219.153 142.006 216.679 138.176 214.445C134.346 212.21 130.755 211.093 127.403 211.093C122.904 211.093 118.735 212.941 114.896 216.636C105.389 227.317 94.9441 232.658 83.561 232.658C78.4538 232.658 73.4265 231.54 68.479 229.306C63.6911 227.072 59.7012 224.598 56.5092 221.885C53.4769 219.172 50.0455 216.698 46.2152 214.463C42.3849 212.229 38.7939 211.112 35.4424 211.112C30.4949 211.112 25.9464 213.346 21.7968 217.815C19.5625 220.049 16.9291 221.486 13.8968 222.124C13.2584 222.284 12.62 222.363 11.9816 222.363C9.74724 222.363 7.59268 221.645 5.51791 220.209C2.80476 218.134 1.20879 215.501 0.729996 212.309C0.570399 211.67 0.490601 211.032 0.490601 210.394C0.490601 207.84 1.36839 205.526 3.12395 203.451C13.019 191.481 24.0312 185.497 36.1606 185.497C41.1081 185.497 45.9758 186.614 50.7637 188.848C55.7112 191.082 59.7012 193.556 62.7335 196.269C65.9255 198.983 69.4366 201.456 73.2669 203.691C77.2569 205.925 80.8478 207.042 84.0397 207.042C88.576 207.042 92.7768 205.231 96.6422 201.608C106.132 190.855 116.625 185.478 128.121 185.478C133.069 185.478 137.937 186.595 142.724 188.829C147.672 191.064 151.662 193.538 154.694 196.251C157.886 198.964 161.397 201.438 165.228 203.672C169.218 205.906 172.809 207.023 176.001 207.023C180.948 207.023 185.497 204.869 189.646 200.56C191.88 198.325 194.514 196.889 197.546 196.251C198.185 196.091 198.823 196.011 199.461 196.011C201.696 196.011 203.85 196.729 205.925 198.166C208.638 200.241 210.234 202.874 210.713 206.066C210.872 206.704 210.952 207.343 210.952 207.981C210.952 210.535 210.075 212.849 208.319 214.924C198.424 226.734 187.491 232.639 175.522 232.639Z" fill="#784BD8"/>
<path d="M175.522 109.197C170.415 109.197 165.387 108.08 160.44 105.846C155.652 103.611 151.662 101.138 148.47 98.4244C145.438 95.7113 142.006 93.2375 138.176 91.0031C134.346 88.7688 130.755 87.6516 127.403 87.6516C122.904 87.6516 118.735 89.4993 114.896 93.1948C105.389 103.876 94.944 109.216 83.561 109.216C78.4538 109.216 73.4265 108.099 68.479 105.864C63.6911 103.63 59.7012 101.156 56.5092 98.4431C53.4769 95.7299 50.0455 93.2562 46.2152 91.0218C42.3849 88.7874 38.7939 87.6703 35.4424 87.6703C30.4949 87.6703 25.9464 89.9046 21.7968 94.3733C19.5625 96.6077 16.9291 98.0441 13.8968 98.6825C13.2584 98.8421 12.62 98.9219 11.9816 98.9219C9.74724 98.9219 7.59268 98.2037 5.51791 96.7673C2.80476 94.6925 1.20879 92.0592 0.729996 88.8672C0.570399 88.2288 0.490601 87.5905 0.490601 86.9521C0.490601 84.3985 1.36839 82.0844 3.12395 80.0096C13.019 68.0398 24.0312 62.0549 36.1606 62.0549C41.1081 62.0549 45.9758 63.1721 50.7637 65.4064C55.7112 67.6408 59.7012 70.1146 62.7335 72.8277C65.9255 75.5409 69.4366 78.0146 73.2669 80.249C77.2569 82.4834 80.8478 83.6005 84.0397 83.6005C88.5759 83.6005 92.7766 81.7894 96.6419 78.1671C106.131 67.4132 116.625 62.0362 128.121 62.0362C133.069 62.0362 137.937 63.1534 142.724 65.3878C147.672 67.6222 151.662 70.0959 154.694 72.8091C157.886 75.5222 161.397 77.996 165.228 80.2303C169.218 82.4647 172.809 83.5819 176.001 83.5819C180.948 83.5819 185.497 81.4273 189.646 77.1182C191.88 74.8838 194.514 73.4474 197.546 72.8091C198.185 72.6495 198.823 72.5697 199.461 72.5697C201.696 72.5697 203.85 73.2879 205.925 74.7242C208.638 76.799 210.234 79.4323 210.713 82.6243C210.872 83.2627 210.952 83.9011 210.952 84.5395C210.952 87.093 210.075 89.4072 208.319 91.4819C198.424 103.292 187.491 109.197 175.522 109.197Z" fill="#784BD8"/>
<path d="M160.44 167.566C165.387 169.801 170.415 170.918 175.522 170.918C187.491 170.918 198.424 165.013 208.319 153.203C210.075 151.128 210.952 148.814 210.952 146.26C210.952 145.622 210.872 144.983 210.713 144.345C210.234 141.153 208.638 138.52 205.925 136.445C203.85 135.009 201.696 134.29 199.461 134.29C198.823 134.29 198.185 134.37 197.546 134.53C194.514 135.168 191.88 136.605 189.646 138.839C185.497 143.148 180.948 145.303 176.001 145.303C172.809 145.303 169.218 144.185 165.228 141.951C161.397 139.717 157.886 137.243 154.694 134.53C151.662 131.817 147.672 129.343 142.724 127.109C137.937 124.874 133.069 123.757 128.121 123.757C116.625 123.757 106.132 129.134 96.6422 139.888C92.7768 143.51 88.576 145.321 84.0397 145.321C80.8478 145.321 77.2569 144.204 73.2669 141.97C69.4366 139.735 65.9255 137.262 62.7335 134.549C59.7012 131.835 55.7112 129.362 50.7637 127.127C45.9758 124.893 41.1081 123.776 36.1606 123.776C24.0312 123.776 13.019 129.761 3.12395 141.73C1.36839 143.805 0.490601 146.119 0.490601 148.673C0.490601 149.311 0.570399 149.95 0.729996 150.588C1.20879 153.78 2.80476 156.413 5.51791 158.488C7.59268 159.924 9.74724 160.643 11.9816 160.643C12.62 160.643 13.2584 160.563 13.8968 160.403C16.9291 159.765 19.5625 158.329 21.7968 156.094C25.9464 151.625 30.4949 149.391 35.4424 149.391C38.7939 149.391 42.3849 150.508 46.2152 152.743C50.0455 154.977 53.4769 157.451 56.5092 160.164C59.7012 162.877 63.6911 165.351 68.479 167.585C73.4265 169.82 78.4538 170.937 83.561 170.937C94.9441 170.937 105.389 165.596 114.896 154.915C118.735 151.22 122.904 149.372 127.403 149.372C130.755 149.372 134.346 150.49 138.176 152.724C142.006 154.958 145.438 157.432 148.47 160.145C151.662 162.858 155.652 165.332 160.44 167.566Z" fill="#784BD8"/>
</svg>
